<?xml version="1.0" encoding="UTF-8" standalone="no"?>
<svg width="440px" height="440px" viewBox="0 0 440 440" version="1.1" xmlns="http://www.w3.org/2000/svg" xmlns:xlink="http://www.w3.org/1999/xlink" xmlns:sketch="http://www.bohemiancoding.com/sketch/ns">
    <!-- Generator: Sketch 3.3.2 (12043) - http://www.bohemiancoding.com/sketch -->
    <title>Oval 3 + Oval 1 + Vic</title>
    <desc>Created with Sketch.</desc>
    <defs></defs>
    <g id="Page-1" stroke="none" stroke-width="1" fill="none" fill-rule="evenodd" sketch:type="MSPage">
        <g id="Artboard-1" sketch:type="MSArtboardGroup">
            <g id="Oval-3-+-Oval-1-+-Vic" sketch:type="MSLayerGroup">
                <circle id="Oval-3" fill="#FFFFFF" sketch:type="MSShapeGroup" cx="220" cy="220" r="220"></circle>
                <g id="Oval-1-+-Vic" transform="translate(20.000000, 20.000000)" fill="#000000" sketch:type="MSShapeGroup">
                    <path d="M200,394 L200,394 C307.143241,394 394,307.143241 394,200 C394,92.8567585 307.143241,6 200,6 C92.8567585,6 6,92.8567585 6,200 C6,307.143241 92.8567585,394 200,394 L200,394 Z M200,400 L200,400 C89.54305,400 0,310.45695 0,200 C0,89.54305 89.54305,0 200,0 C310.45695,0 400,89.54305 400,200 C400,310.45695 310.45695,400 200,400 L200,400 Z" id="Shape"></path>
                    <path d="M351.40625,108.242188 C351.40625,110.117197 350.312511,111.054688 348.125,111.054688 L346.132812,111.054688 C341.835916,110.585935 338.320326,110.351562 335.585938,110.351562 C315.429587,110.351562 291.679824,119.140537 264.335938,136.71875 C251.210872,145.234418 240.078171,153.867144 230.9375,162.617188 C222.109331,171.21098 205.546996,189.296737 181.25,216.875 C152.577982,249.531413 130.976635,271.13276 116.445312,281.679688 C108.789024,287.304716 104.570316,290.117188 103.789062,290.117188 C103.32031,290.117188 103.085938,289.882815 103.085938,289.414062 C103.085938,289.335937 103.945304,288.125012 105.664062,285.78125 C119.492257,267.890536 131.347607,246.67981 141.230469,222.148438 C151.113331,197.617065 156.054688,177.14852 156.054688,160.742188 C156.054688,134.335805 145.35167,121.132812 123.945312,121.132812 C115.50777,121.132812 105.781305,124.023409 94.765625,129.804688 C83.7499449,135.585966 73.7109828,143.085891 64.6484375,152.304688 C54.8046383,162.382863 46.9336232,173.613219 41.0351562,185.996094 C35.1366893,198.378968 32.1875,209.960884 32.1875,220.742188 C32.1875,230.429736 34.8046613,238.085909 40.0390625,243.710938 C45.2734637,249.335966 52.3437055,252.148438 61.25,252.148438 C78.5938367,252.148438 95.468668,241.054798 111.875,218.867188 C123.593809,203.007733 129.453125,188.828188 129.453125,176.328125 C129.453125,170.703097 128.06642,166.230485 125.292969,162.910156 C122.519517,159.589827 118.789086,157.929688 114.101562,157.929688 C111.445299,157.929688 108.808607,158.53515 106.191406,159.746094 C103.574206,160.957037 102.265625,162.187494 102.265625,163.4375 C102.265625,163.906252 102.53906,164.140625 103.085938,164.140625 L104.023438,164.140625 C106.210948,163.828123 107.421874,163.671875 107.65625,163.671875 C111.171893,163.671875 112.929688,165.585918 112.929688,169.414062 C112.929688,171.83595 111.992197,173.925772 110.117188,175.683594 C108.242178,177.441415 106.0547,178.320312 103.554688,178.320312 C98.7109133,178.320312 96.2890625,175.820337 96.2890625,170.820312 C96.2890625,166.757792 98.0468574,163.222671 101.5625,160.214844 C105.078143,157.207016 109.257788,155.703125 114.101562,155.703125 C119.335964,155.703125 123.554671,157.558575 126.757812,161.269531 C129.960954,164.980487 131.5625,169.84372 131.5625,175.859375 C131.5625,191.171952 123.984451,207.968659 108.828125,226.25 C93.3592977,244.843843 77.421957,254.140625 61.015625,254.140625 C50.7030734,254.140625 42.2851889,250.546911 35.7617188,243.359375 C29.2382486,236.171839 25.9765625,226.875057 25.9765625,215.46875 C25.9765625,193.749891 36.874891,172.285262 58.671875,151.074219 C80.468859,129.863175 102.460827,119.257812 124.648438,119.257812 C137.851629,119.257812 148.554646,123.84761 156.757812,133.027344 C164.960979,142.207077 169.0625,154.257738 169.0625,169.179688 C169.0625,185.117267 164.570357,201.874912 155.585938,219.453125 C146.601518,237.031338 132.109475,257.460821 112.109375,280.742188 C111.328121,281.679692 110.9375,282.226562 110.9375,282.382812 L111.171875,282.734375 C112.500007,282.734375 117.38277,279.101599 125.820312,271.835938 C132.30472,266.36716 139.023403,259.843788 145.976562,252.265625 C152.226594,245.468716 168.710804,226.875152 195.429688,196.484375 C211.211016,178.515535 225.117127,164.355521 237.148438,154.003906 C249.179748,143.652292 262.656175,134.218793 277.578125,125.703125 C301.875121,111.796805 323.281157,104.84375 341.796875,104.84375 C348.203157,104.84375 351.40625,105.976551 351.40625,108.242188 L351.40625,108.242188 Z M242,189.804688 C242,192.539076 240.847668,195.097644 238.542969,197.480469 C236.23827,199.863293 233.718764,201.054688 230.984375,201.054688 C227.468732,201.054688 225.710938,199.296893 225.710938,195.78125 C225.710938,193.203112 226.921863,190.722668 229.34375,188.339844 C231.765637,185.957019 234.304674,184.765625 236.960938,184.765625 C240.320329,184.765625 242,186.445296 242,189.804688 L242,189.804688 Z M243.640625,238.320312 C243.5625,238.554689 243.171879,239.179682 242.46875,240.195312 L237.429688,247.109375 C222.742114,267.500102 211.531289,277.695312 203.796875,277.695312 C200.124982,277.695312 197.058606,276.386732 194.597656,273.769531 C192.136706,271.152331 190.90625,267.890645 190.90625,263.984375 C190.90625,259.453102 193.601536,252.578171 198.992188,243.359375 L217.273438,212.304688 C219.695325,212.851565 221.609368,213.125 223.015625,213.125 C225.125011,213.125 228.093731,212.851565 231.921875,212.304688 L205.320312,256.015625 C201.492168,262.343782 199.578125,267.226545 199.578125,270.664062 C199.578125,274.179705 201.414044,275.9375 205.085938,275.9375 C212.039097,275.9375 224.265537,263.554811 241.765625,238.789062 C242.156252,238.007809 242.546873,237.617188 242.9375,237.617188 C243.406252,237.617188 243.640625,237.85156 243.640625,238.320312 L243.640625,238.320312 Z M314,238.320312 C314,239.335943 308.492243,245.898377 297.476562,258.007812 C285.445252,271.132878 275.21098,277.695312 266.773438,277.695312 C261.30466,277.695312 256.617207,275.60549 252.710938,271.425781 C248.804668,267.246073 246.851563,262.265654 246.851563,256.484375 C246.851563,249.921842 249.507786,243.125035 254.820313,236.09375 C260.132839,229.062465 267.281205,223.007838 276.265625,217.929688 C283.843788,213.554666 290.015601,211.367188 294.78125,211.367188 C300.562529,211.367188 303.453125,214.804653 303.453125,221.679688 C303.453125,227.070339 301.636737,232.460911 298.003906,237.851562 C294.371076,243.242214 290.75783,245.9375 287.164062,245.9375 C283.64842,245.9375 281.890625,244.179705 281.890625,240.664062 C281.890625,236.523417 285.484339,232.69533 292.671875,229.179688 C298.218778,226.445299 300.992188,222.851585 300.992188,218.398438 C300.992188,214.882795 299.078144,213.125 295.25,213.125 C288.765593,213.125 280.796922,219.570248 271.34375,232.460938 C261.890578,245.351627 257.164062,256.171831 257.164062,264.921875 C257.164062,272.265662 260.601528,275.9375 267.476562,275.9375 C278.257866,275.9375 292.867095,263.789184 311.304688,239.492188 C312.320318,238.242181 313.062498,237.617188 313.53125,237.617188 C313.843752,237.695313 314,237.929686 314,238.320312 L314,238.320312 Z" id="Vic"></path>
                </g>
            </g>
        </g>
    </g>
</svg>