<?xml version="1.0" encoding="UTF-8" standalone="no"?>
<svg width="20px" height="20px" viewBox="0 0 20 20" version="1.1" xmlns="http://www.w3.org/2000/svg" xmlns:xlink="http://www.w3.org/1999/xlink" xmlns:sketch="http://www.bohemiancoding.com/sketch/ns">
    <!-- Generator: Sketch 3.2.2 (9983) - http://www.bohemiancoding.com/sketch -->
    <title>dribbble2</title>
    <desc>Created with Sketch.</desc>
    <defs></defs>
    <g id="Page-1" stroke="none" stroke-width="1" fill="none" fill-rule="evenodd" sketch:type="MSPage">
        <g id="Desktop" sketch:type="MSArtboardGroup" transform="translate(-403.000000, -903.000000)">
            <g id="dribbble2" sketch:type="MSLayerGroup" transform="translate(403.000000, 903.000000)">
                <rect id="Rectangle-path" sketch:type="MSShapeGroup" x="0" y="0" width="20" height="20"></rect>
                <path d="M10.24,9.757 C10.274,9.746 10.308,9.736 10.342,9.726 C10.26,9.542 10.169,9.353 10.066,9.149 C8.204,9.699 6.422,9.706 6.104,9.7 C6.103,9.725 6.102,9.75 6.102,9.774 C6.102,10.711 6.438,11.61 7.051,12.316 C7.255,11.986 8.336,10.373 10.24,9.757 L10.24,9.757 Z M12.514,6.832 C11.81,6.227 10.913,5.893 9.984,5.893 C9.703,5.893 9.421,5.924 9.143,5.986 C9.346,6.259 9.967,7.122 10.55,8.186 C11.818,7.699 12.393,6.996 12.514,6.832 L12.514,6.832 Z M7.631,12.856 C8.314,13.378 9.127,13.654 9.984,13.654 C10.496,13.654 10.993,13.556 11.463,13.363 C11.398,12.986 11.171,11.838 10.65,10.47 C8.549,11.213 7.757,12.61 7.631,12.856 L7.631,12.856 Z M9.691,8.452 C9.089,7.39 8.462,6.516 8.291,6.281 C7.234,6.795 6.457,7.773 6.199,8.914 L6.215,8.914 C6.617,8.914 8.045,8.881 9.691,8.452 L9.691,8.452 Z M11.482,10.267 C11.942,11.545 12.154,12.61 12.215,12.95 C13.058,12.356 13.635,11.444 13.808,10.432 C13.636,10.381 13.015,10.213 12.233,10.213 C11.977,10.213 11.724,10.23 11.482,10.267 L11.482,10.267 Z M9.983,0.269 C4.733,0.269 0.478,4.525 0.478,9.774 C0.478,15.024 4.733,19.28 9.983,19.28 C15.233,19.28 19.488,15.024 19.488,9.774 C19.488,4.524 15.233,0.269 9.983,0.269 L9.983,0.269 Z M9.983,14.426 C7.418,14.426 5.331,12.339 5.331,9.774 C5.331,7.21 7.418,5.123 9.983,5.123 C12.548,5.123 14.635,7.21 14.635,9.774 C14.636,12.339 12.549,14.426 9.983,14.426 L9.983,14.426 Z M10.896,8.858 C10.982,9.035 11.063,9.212 11.136,9.383 C11.16,9.439 11.183,9.495 11.207,9.552 C11.481,9.519 11.775,9.502 12.08,9.502 C12.925,9.502 13.628,9.626 13.862,9.673 C13.841,8.831 13.543,8.013 13.02,7.357 C12.861,7.561 12.209,8.311 10.896,8.858 L10.896,8.858 Z" id="Shape" fill="#000000" sketch:type="MSShapeGroup"></path>
            </g>
        </g>
    </g>
</svg>