<?xml version="1.0" encoding="UTF-8" standalone="no"?>
<svg width="20px" height="20px" viewBox="0 0 20 20" version="1.1" xmlns="http://www.w3.org/2000/svg" xmlns:xlink="http://www.w3.org/1999/xlink" xmlns:sketch="http://www.bohemiancoding.com/sketch/ns">
    <!-- Generator: Sketch 3.2.2 (9983) - http://www.bohemiancoding.com/sketch -->
    <title>github2</title>
    <desc>Created with Sketch.</desc>
    <defs></defs>
    <g id="Page-1" stroke="none" stroke-width="1" fill="none" fill-rule="evenodd" sketch:type="MSPage">
        <g id="Desktop" sketch:type="MSArtboardGroup" transform="translate(-245.000000, -863.000000)">
            <g id="github2" sketch:type="MSLayerGroup" transform="translate(245.000000, 863.000000)">
                <rect id="Rectangle-path" sketch:type="MSShapeGroup" x="0" y="0" width="20" height="20"></rect>
                <path d="M9.581,10.118 L9.567,10.118 L9.553,10.118 C8.373,10.118 7.334,9.82 6.72,10.384 C6.352,10.723 6.197,11.13 6.197,11.57 C6.197,13.404 7.666,13.629 9.553,13.629 L9.581,13.629 C11.468,13.629 12.937,13.404 12.937,11.57 C12.937,11.131 12.782,10.723 12.414,10.384 C11.8,9.82 10.761,10.118 9.581,10.118 L9.581,10.118 Z M7.977,12.624 C7.618,12.624 7.327,12.222 7.327,11.724 C7.327,11.228 7.618,10.825 7.977,10.825 C8.336,10.825 8.627,11.228 8.627,11.724 C8.627,12.222 8.336,12.624 7.977,12.624 L7.977,12.624 Z M11.157,12.624 C10.798,12.624 10.507,12.222 10.507,11.724 C10.507,11.228 10.799,10.825 11.157,10.825 C11.516,10.825 11.807,11.228 11.807,11.724 C11.808,12.222 11.517,12.624 11.157,12.624 L11.157,12.624 Z M9.567,0.664 C4.317,0.664 0.062,4.919 0.062,10.169 C0.062,15.419 4.317,19.674 9.567,19.674 C14.816,19.674 19.072,15.419 19.072,10.169 C19.072,4.919 14.816,0.664 9.567,0.664 L9.567,0.664 Z M10.434,14.07 C10.264,14.07 9.925,14.07 9.567,14.071 C9.209,14.07 8.87,14.07 8.7,14.07 C7.947,14.07 4.965,14.012 4.965,10.417 C4.965,9.591 5.248,8.985 5.713,8.481 C5.639,8.298 5.635,7.26 6.03,6.266 C6.03,6.266 6.936,6.366 8.307,7.307 C8.595,7.227 9.081,7.188 9.568,7.188 C10.054,7.188 10.541,7.227 10.828,7.307 C12.199,6.366 13.105,6.266 13.105,6.266 C13.5,7.26 13.497,8.298 13.422,8.481 C13.886,8.985 14.17,9.59 14.17,10.417 C14.169,14.013 11.187,14.07 10.434,14.07 L10.434,14.07 Z" id="Shape" fill="#000000" sketch:type="MSShapeGroup"></path>
            </g>
        </g>
    </g>
</svg>