<?xml version="1.0" encoding="UTF-8" standalone="no"?>
<svg width="20px" height="20px" viewBox="0 0 20 20" version="1.1" xmlns="http://www.w3.org/2000/svg" xmlns:xlink="http://www.w3.org/1999/xlink" xmlns:sketch="http://www.bohemiancoding.com/sketch/ns">
    <!-- Generator: Sketch 3.2.2 (9983) - http://www.bohemiancoding.com/sketch -->
    <title>twitter2</title>
    <desc>Created with Sketch.</desc>
    <defs></defs>
    <g id="Page-1" stroke="none" stroke-width="1" fill="none" fill-rule="evenodd" sketch:type="MSPage">
        <g id="Desktop" sketch:type="MSArtboardGroup" transform="translate(-482.000000, -863.000000)">
            <g id="twitter2" sketch:type="MSLayerGroup" transform="translate(482.000000, 863.000000)">
                <rect id="Rectangle-path" sketch:type="MSShapeGroup" x="0" y="0" width="20" height="20"></rect>
                <path d="M10.188,0.664 C4.938,0.664 0.683,4.919 0.683,10.169 C0.683,15.419 4.938,19.674 10.188,19.674 C15.438,19.674 19.693,15.419 19.693,10.169 C19.693,4.919 15.438,0.664 10.188,0.664 L10.188,0.664 Z M14.055,8.45 C14.059,8.531 14.06,8.612 14.06,8.692 C14.06,11.167 12.177,14.019 8.734,14.019 C7.676,14.019 6.693,13.708 5.865,13.177 C6.011,13.195 6.16,13.203 6.311,13.203 C7.188,13.203 7.995,12.904 8.636,12.402 C7.817,12.386 7.125,11.845 6.887,11.101 C7.001,11.122 7.118,11.135 7.24,11.135 C7.41,11.135 7.576,11.112 7.733,11.07 C6.877,10.897 6.231,10.14 6.231,9.234 L6.231,9.211 C6.483,9.351 6.772,9.436 7.079,9.445 C6.577,9.109 6.246,8.536 6.246,7.886 C6.246,7.542 6.338,7.221 6.499,6.945 C7.422,8.078 8.802,8.823 10.357,8.901 C10.326,8.764 10.309,8.621 10.309,8.474 C10.309,7.441 11.147,6.602 12.181,6.602 C12.719,6.602 13.205,6.83 13.547,7.193 C13.974,7.109 14.374,6.954 14.735,6.74 C14.595,7.177 14.298,7.544 13.913,7.775 C14.291,7.73 14.652,7.629 14.987,7.48 C14.738,7.856 14.42,8.187 14.055,8.45 L14.055,8.45 Z" id="Shape" fill="#000000" sketch:type="MSShapeGroup"></path>
            </g>
        </g>
    </g>
</svg>